<?xml version="1.0" encoding="UTF-8" standalone="no"?>
<!-- Created with Inkscape (http://www.inkscape.org/) -->

<svg
   width="44mm"
   height="122mm"
   viewBox="0 0 44 122"
   version="1.1"
   id="svg1"
   inkscape:version="1.4.2 (f4327f4, 2025-05-13)"
   sodipodi:docname="stainless-steel-sipper-750ml-plain.svg"
   inkscape:export-filename="stainless-steel-sipper-750ml.pdf"
   inkscape:export-xdpi="600"
   inkscape:export-ydpi="600"
   xmlns:inkscape="http://www.inkscape.org/namespaces/inkscape"
   xmlns:sodipodi="http://sodipodi.sourceforge.net/DTD/sodipodi-0.dtd"
   xmlns="http://www.w3.org/2000/svg"
   xmlns:svg="http://www.w3.org/2000/svg">
  <sodipodi:namedview
     id="namedview1"
     pagecolor="#505050"
     bordercolor="#cccccc"
     borderopacity="1"
     inkscape:showpageshadow="false"
     inkscape:pageopacity="0"
     inkscape:pagecheckerboard="true"
     inkscape:deskcolor="#505050"
     inkscape:document-units="mm"
     showborder="true"
     inkscape:zoom="1.9193135"
     inkscape:cx="83.102629"
     inkscape:cy="147.18804"
     inkscape:window-width="1920"
     inkscape:window-height="1166"
     inkscape:window-x="-11"
     inkscape:window-y="-11"
     inkscape:window-maximized="1"
     inkscape:current-layer="layer1" />
  <defs
     id="defs1" />
  <g
     inkscape:label="Layer 1"
     inkscape:groupmode="layer"
     id="layer1">
    <path
       d="m 10.482034,87.998829 q -1e-6,-0.23175 -0.370796,-0.231751 -0.8343,-10e-7 -1.344148,0.602549 -0.509852,0.556195 -0.50985,1.390497 0,1.066047 0.648899,1.714948 0.602553,0.648895 1.668598,0.648897 1.066047,10e-7 1.066047,-0.6489 -0.09269,0.04636 -0.185397,0.04636 -0.1854,-5e-6 -0.185403,-0.231747 -10e-7,-0.4635 0.556199,-0.463498 0.417151,-10e-7 0.463505,0.417145 2.549243,-1.946695 5.84009,-1.946697 2.920042,0 5.376588,1.761298 2.502895,1.807645 2.502896,4.63499 0,1.714948 -1.251447,2.641945 -1.251448,0.926999 -3.198145,0.926998 -2.363845,-1e-6 -4.495944,-1.297797 -2.132095,-1.2978 -2.132095,-3.429894 1e-6,-0.973348 0.556198,-1.622248 0.50985,-0.695247 1.344147,-0.695249 0.324449,6e-6 0.463495,0.278107 0.139013,0.23177 0,0.509848 -0.139013,0.231771 -0.417163,0.231727 -0.556198,-10e-7 -0.556199,-0.278098 l -9e-6,-0.04636 q 0.04636,-0.04635 0.04637,-0.09269 -0.648899,0.139045 -0.648897,0.927 2e-6,1.622247 1.993047,2.502895 2.039398,0.973349 3.754344,0.973352 3.893393,-10e-7 3.893393,-1.622248 0,-1.344149 -1.714947,-2.363847 -1.668595,-1.019702 -3.476244,-1.390497 -1.946697,-0.370799 -3.151794,-0.370799 -3.290845,0 -5.237541,1.622247 -1.993047,1.622249 -1.993047,4.634992 0,2.688296 1.158747,4.264196 0.88065,-0.6489 1.668596,-0.6489 0.97335,0 1.622249,0.69525 0.648898,0.6489 0.648898,1.62224 0,1.2978 -1.344145,1.29781 -0.834299,0 -1.668596,-0.50985 -0.834302,-0.50985 -1.066051,-1.2051 -1.297798,2.41019 -1.297797,5.84009 0,1.854 1.066053,3.84704 1.112383,1.94671 2.827344,1.9467 2.549244,0 3.105443,-2.3175 0.509847,-1.80764 0.50985,-4.07879 0,-2.54924 -0.139051,-2.87369 -0.231755,0.23174 -0.324453,0.23174 -0.463499,0 -0.4635,-0.3708 10e-7,-0.5562 0.6489,-0.5562 0.463501,0 0.695246,1.1124 0.04636,0.0927 0.09273,0.32444 1.5e-5,0.1854 -2e-6,0.27811 0.602552,-1.9467 2.039398,-3.38355 2.595596,-2.50289 6.998835,-2.50289 5.422942,0 8.528387,3.10544 1.714946,1.71495 1.714946,4.07879 0,2.8737 -1.575898,2.8737 -0.5562,0 -0.556203,-0.41715 -2e-6,-0.50984 0.463494,-0.50985 0.278099,-1e-5 0.509851,0.1854 0.4635,-0.1854 0.463497,-0.8343 0,-1.90035 -1.993044,-3.3372 -1.946698,-1.34415 -4.310544,-1.99304 -2.224796,-0.60256 -4.078793,-0.60255 -3.290843,0 -5.469289,1.57589 -2.224795,1.62225 -2.224794,4.7277 -2e-6,2.13209 1.158746,3.89339 1.158748,1.76129 3.105445,2.78099 3.893392,2.08575 8.064884,2.08575 1.900348,0 3.800694,-0.4635 2.085745,-0.4635 2.085747,-1.5759 -2e-6,-0.23175 -0.185403,-0.41714 l -0.2781,0.13904 q -0.556199,0 -0.509845,-0.4635 0,-0.4635 0.648899,-0.4635 0.417151,0 0.7416,0.3708 0.278098,0.3708 0.278102,0.78795 0,1.52954 -1.668597,2.64194 -1.529548,1.11239 -3.568944,1.62224 -1.807648,0.4635 -3.383544,0.4635 -4.774041,0 -8.018534,-3.05909 -2.132096,-1.99305 -2.920046,-4.82039 -0.231751,1.01969 -0.78795,2.08574 -1.019693,1.9467 -3.105443,1.9467 -2.363846,0 -3.615294,-2.73465 -1.205097,-2.78099 -1.205098,-5.37659 0,-3.98609 1.761294,-6.44264 -1.436847,-2.27114 -1.436848,-4.959436 0,-2.271146 1.112394,-4.078796 l -0.04636,8e-6 q -1.390497,0 -2.178446,-0.973349 -0.834299,-1.019697 -0.834298,-2.502896 0,-1.158748 0.834297,-2.085745 0.787951,-0.926996 1.900349,-0.926998 1.344148,0 1.344148,0.973348 -3e-6,0.509848 -0.509851,0.509848 -0.324449,-6e-6 -0.324447,-0.278103 -2e-6,-0.0927 0.185398,-0.278099 z m 0.787949,14.878321 q 0.880648,1.25145 2.410197,1.25145 0.602547,0 0.602545,-0.4635 0,-0.5562 -0.509846,-0.927 -0.5562,-0.41715 -1.158747,-0.41715 -0.787948,0 -1.344147,0.5562 z M 25.128612,50.826203 q 3.290843,-10e-7 6.303588,1.853996 3.059094,1.853995 3.059094,4.866743 10e-7,2.317495 -1.853996,3.893391 -1.761296,1.575897 -4.125143,1.575897 -2.549245,0 -4.913089,-1.390501 -2.317506,-1.344133 -2.317496,-3.707993 -2e-6,-1.297799 0.973347,-2.178447 0.926998,-0.926998 2.224797,-0.926998 0.741599,0 1.436849,0.417148 0.695245,0.41715 0.695244,1.019699 1e-6,0.741599 -0.834299,0.741597 -0.556198,2e-6 -0.556197,-0.6489 -5e-6,-0.185398 0.185394,-0.231752 -0.324451,-0.417147 -1.205099,-0.417146 -0.741597,0 -1.344146,0.602549 -0.60255,0.602551 -0.602549,1.344149 -1e-6,1.158746 1.205097,1.853996 1.112401,0.741595 2.410197,0.88065 1.066047,0.1854 2.456545,0.185398 1.529547,0 3.429893,-0.834299 1.853998,-0.8343 1.853997,-2.178448 1e-6,-1.066046 -1.019698,-1.900346 -1.066047,-0.880649 -2.780995,-1.297798 -3.151795,-0.741593 -5.422941,-0.741598 -2.410194,-1e-6 -4.403241,1.158746 -2.039396,1.205101 -2.039396,3.337195 l 1e-6,5.840088 v 6.81344 q 0.695249,-1.575897 1.993047,-2.827346 2.966393,-2.827348 7.508687,-2.827344 3.939742,-10e-7 6.674388,2.317495 2.734643,2.317496 2.734644,6.257238 10e-7,1.066049 -0.417149,2.178446 -0.463499,1.066049 -1.158748,1.344148 1.575897,1.993047 1.575897,4.913091 10e-7,2.688296 -1.714947,4.125142 -1.761298,1.436848 -4.634992,1.436849 -5.283891,-2e-6 -9.409033,-3.661645 -2.132097,-1.853997 -3.198143,-4.217841 v 0.60255 l 1e-6,5.840089 q -7e-6,0.324449 0.463498,0.463501 0.509837,0.139094 0.509846,0.926998 1e-6,0.834299 -1.112397,0.834299 -0.834298,0 -0.834299,-1.622246 l 6e-6,-28.644251 q 0,-3.244494 2.410194,-5.330241 2.456547,-2.039395 5.793743,-2.039396 z m 10.845876,23.035906 q 10e-7,-1.993046 -1.853995,-3.522593 -1.900347,-1.529548 -4.032443,-2.132097 -2.085748,-0.602542 -4.125143,-0.602548 -3.754343,10e-7 -5.886439,1.993046 -1.946696,1.761298 -2.178447,5.098491 v 1.019699 q 0.185401,2.549243 2.271147,4.681343 2.271148,2.317491 5.283889,3.522592 3.059095,1.205097 5.70104,1.205098 2.132097,0 3.476245,-0.834296 1.344147,-0.880648 1.344147,-2.641944 1e-6,-1.900347 -1.390497,-4.078793 -0.370801,0.787946 -2.178445,0.787949 -1.34415,-1e-6 -2.224796,-0.509852 -0.880647,-0.556201 -0.880648,-1.622248 0,-1.575897 1.807647,-1.575897 2.363846,-10e-7 3.615295,1.946696 1.251445,-0.926998 1.251446,-2.734646 z m -4.634991,1.622248 q -1.205098,0 -1.205098,0.834299 0,0.602549 0.7416,0.973349 0.695246,0.3708 1.529545,0.3708 1.066049,-1e-6 1.807648,-0.648899 -1.112397,-1.529547 -2.873695,-1.529547 z M 13.819229,21.394032 q 0.648898,0 0.648896,0.695255 4e-6,0.324448 -0.463499,0.324447 -0.509849,10e-7 -0.602549,-0.231747 -1.297797,0.278101 -1.297798,2.317493 0,0.834299 0.2781,1.668598 0.231753,0.787948 0.787947,1.668597 0.556201,0.880648 0.973349,1.436849 0.417148,0.50985 1.297798,1.529546 0.880651,1.019696 1.205098,1.436847 0.278099,0.370801 0.417151,0.602548 l -7e-6,-0.139045 q 0,-3.893394 2.317496,-6.58169 2.363847,-2.595595 6.210888,-2.595594 4.171494,0 7.740437,2.502895 3.568945,2.595596 3.568943,6.535339 7e-6,1.900344 -0.927003,3.42989 -0.927002,1.483194 -2.549245,1.900345 3.476244,2.410197 3.476247,5.979137 2e-6,2.178447 -1.436847,3.522594 -1.483195,1.34415 -3.707994,1.344148 -2.920043,10e-7 -5.23754,-1.807647 -2.271146,-1.807646 -2.271146,-4.634993 1e-6,-4.91309 5.330241,-5.608338 -0.509849,-1e-6 -0.509846,-0.370803 -2e-6,-0.417148 0.509849,-0.417147 0.231749,10e-7 0.324438,0.09273 0.0927,0.0927 0.139046,0.2781 -5e-6,0.1854 0.04635,0.2781 0.417147,0.556199 2.08575,0.556183 1.668598,10e-7 2.780995,-1.390498 1.1124,-1.390493 1.112399,-3.059089 0,-1.436847 -1.158748,-2.734645 -1.158748,-1.344147 -3.012744,-2.132097 -3.754343,-1.622247 -6.720738,-1.622247 -3.012744,1e-6 -5.19119,1.761297 -2.085747,1.714948 -2.085745,4.774042 -1e-6,0.648898 0.324447,1.761297 0.231752,0.556198 0.278097,0.973349 0.602548,1.483193 0.602549,3.198139 0,1.575897 -0.741598,2.595595 -0.787948,0.973348 -2.178447,0.973349 -1.112398,0 -1.993045,-0.695249 -0.926999,-0.695249 -0.927002,-1.668595 -1e-6,-0.834298 0.556198,-0.834298 0.556199,0 0.556197,0.417151 0,0.3708 -0.463499,0.417149 -1e-6,0.695249 0.695249,1.251447 0.695249,0.509851 1.483197,0.50985 0.741598,10e-7 1.251448,-0.602549 0.463498,-0.60255 0.463501,-1.390498 0,-1.390496 -1.066049,-3.244493 -0.973347,-1.714948 -2.317494,-3.337195 -1.25145,-1.483196 -2.317499,-3.661642 -1.066046,-2.224797 -1.066043,-4.217845 0,-1.575897 0.7416,-2.641946 0.741597,-1.112402 2.039396,-1.1124 z m 14.646573,17.659322 q -3.522593,0 -3.522595,2.549246 2e-6,1.993046 2.549247,3.290843 2.549246,1.390494 4.727692,1.390497 1.622246,0 2.734644,-0.648898 1.112381,-0.648931 1.112383,-1.946704 0,-1.900349 -2.734645,-3.290845 -2.780994,-1.344147 -4.866741,-1.344146 z M 12.75318,4.429945 q 2.363848,-7e-6 3.800694,2.132095 0.417148,0.648901 0.741596,1.205101 0.32445,-2.688299 1.946696,-4.449583 2.178451,-2.317511 5.932788,-2.317501 4.86675,-1.2e-5 8.296635,3.429888 3.429863,3.522635 3.429898,8.342989 -4e-6,3.707993 -2.317496,6.118189 -2.271146,2.410191 -5.97914,2.410193 -5.00579,-3e-6 -8.250284,-3.383543 -1.853995,-1.993053 -2.595592,-4.449596 -0.0927,0.417151 -0.3708,1.158753 -0.602551,1.807642 -1.900344,1.807642 -0.370806,3.2e-5 -0.370801,-0.417145 1e-6,-0.7416 0.648901,-0.741602 0.370805,-3.2e-5 0.370796,0.231751 0,0 1.2e-5,0.09265 1.0197,-1.158732 1.019694,-4.403236 1e-6,-1.900335 -1.297796,-3.337186 -1.344146,-1.483206 -3.105444,-1.483203 -1.761294,-8e-6 -2.873693,1.251445 -1.112397,1.251457 -1.112399,3.151799 0,1.575897 0.926998,2.641945 0.880648,1.066053 2.317497,1.066048 1.112398,0 1.853996,-0.787949 0.741598,-0.834301 0.7416,-1.993053 -2e-6,-1.158744 -0.556194,-2.317496 -0.463503,-1.158742 -1.483201,-1.158741 -1.112398,1e-6 -1.112397,0.741594 l -1.2e-5,0.09272 0.231751,0.04628 q 0,0 -2e-5,0.04641 l 0.04635,0.09268 q 0,0 -7e-6,0.0463 1e-6,0.463485 -0.370798,0.463485 -0.324456,2.6e-5 -0.463489,-0.278105 -0.139045,-0.2781 0,-0.695252 0.139051,-0.417142 0.509853,-0.69525 0.648899,-0.417146 1.251445,-0.417141 1.251445,3e-6 1.99305,1.297796 0.787946,1.344143 0.787947,2.734644 2e-6,2.039396 -0.880647,3.429889 -0.880647,1.344151 -2.595595,1.34415 -1.946697,-3e-6 -2.920046,-1.807637 -0.926994,-1.761302 -0.926999,-3.847051 2e-6,-2.456544 1.158748,-4.449586 1.205093,-1.946703 3.476248,-1.946703 z m 23.267662,8.296629 q -3e-6,-3.986077 -3.290847,-6.442633 -3.244492,-2.410191 -7.41599,-2.410184 -3.105438,-9e-6 -5.237534,1.297778 -2.132099,1.297802 -2.1321,4.264206 0,1.43684 1.019697,2.734641 1.066051,1.390497 2.410198,1.3905 0.4635,0 0.787949,-0.185403 v -0.231742 q 3e-6,-0.556205 0.463504,-0.556204 0.834297,-2e-6 0.834295,0.973353 4e-6,0.509839 -0.463498,0.787946 -0.509848,0.278092 -1.112399,0.278096 -0.834299,1e-6 -1.761291,-0.556214 -0.926991,-0.556214 -1.390497,-1.251452 0.834296,2.688297 3.70799,4.310551 2.966394,1.622247 6.07196,1.621797 2.688292,8e-6 5.098489,-1.714944 2.410195,-1.714951 2.410195,-4.310541 z"
       id="text1"
       style="font-size:55.6199px;font-family:Sirivennela;-inkscape-font-specification:'Sirivennela, Normal';fill:#000000;stroke-width:0"
       aria-label="గోదావరి" />
  </g>
</svg>
